# xmcd
#
# Track frame offsets: 
#        150
#        12797
#        25322
#        35845
#        48235
#        59445
#        69517
#        82735
#        94190
#        106472
#        119077
#        130542
#        141495
#        151767
#        162180
#        175412
#        185932
#        198075
#        207902
#        218222
#        229287
#        241797
#        250875
#        260515
#        274805
#        288477
#        300230
#        311815
#        322030
#        334052
#
# Disc length: 4619 seconds
#
# Revision: 1
# Processed by: cddbd v1.5.2PL0 Copyright (c) Steve Scherf et al.
# Submitted via: ExactAudioCopyFreeDBPlugin 1.0
#
DISCID=ba12091e
DTITLE=Hank Snow - The Goldrush Is Over
DYEAR=2007
DGENRE=Country
TTITLE0=I'm Movin' On
TTITLE1=The Rhumba Boogie
TTITLE2=Unwanted Sign Upon Your Heart
TTITLE3=The Golden Rocket
TTITLE4=(Now And Then There's) A Fool Such As I
TTITLE5=The Wreck Of The Old 97
TTITLE6=Confused With The Blues
TTITLE7=Don't Hang Around Me Anymore
TTITLE8=Ben Dewberry's Final Run
TTITLE9=Blue Ranger
TTITLE10=One More Ride
TTITLE11=Music Makin' Mama From Memphis
TTITLE12=The Goldrush Is Over
TTITLE13=Lady's Man
TTITLE14=I Don't Hurt Anymore
TTITLE15=The Reindeer Boogie
TTITLE16=Honeymoon On A Rocketship
TTITLE17=Southern Cannonball
TTITLE18=Can't Have You Blues
TTITLE19=Conscience I'm Guilty
TTITLE20=Dog Bone
TTITLE21=Hula Rock
TTITLE22=Loose Talk
TTITLE23=Squid Jiggin' Ground
TTITLE24=The New Blue Velvet Band
TTITLE25=Tangled Mind
TTITLE26=On A Tennessee Saturday Night
TTITLE27=I'm Here To Get My Baby Out Of Jail
TTITLE28=Miller's Cave
TTITLE29=I've Been Everywhere
EXTD=YEAR: 2007
EXTT0=
EXTT1=
EXTT2=
EXTT3=
EXTT4=
EXTT5=
EXTT6=
EXTT7=
EXTT8=
EXTT9=
EXTT10=
EXTT11=
EXTT12=
EXTT13=
EXTT14=
EXTT15=
EXTT16=
EXTT17=
EXTT18=
EXTT19=
EXTT20=
EXTT21=
EXTT22=
EXTT23=
EXTT24=
EXTT25=
EXTT26=
EXTT27=
EXTT28=
EXTT29=
PLAYORDER=
